<?xml version="1.0" encoding="utf-8"?>
<!-- Generator: Adobe Illustrator 24.0.0, SVG Export Plug-In . SVG Version: 6.00 Build 0)  -->
<svg version="1.1" id="Capa_1" xmlns="http://www.w3.org/2000/svg" xmlns:xlink="http://www.w3.org/1999/xlink" x="0px" y="0px"
	 viewBox="0 0 126 100" style="enable-background:new 0 0 126 100;" xml:space="preserve">
<style type="text/css">
	.st0{fill:#FFFFFF;}
	.st1{fill:#333333;}
	.st2{fill-rule:evenodd;clip-rule:evenodd;fill:#1C7A8D;}
</style>
<rect class="st0" width="126" height="100"/>
<g>
	<polygon class="st1" points="38,45.9 38,57 35.9,57 35.9,45.9 32.4,45.9 32.4,44.1 41.4,44.1 41.4,45.9 38,45.9 	"/>
	<polygon class="st1" points="45.4,56.9 45.4,44.1 47.5,44 47.5,49.1 53.9,49.1 53.9,44.1 56,44.1 56,57 53.9,57 53.9,50.9 
		47.5,50.9 47.5,56.9 45.4,56.9 	"/>
	<polygon class="st1" points="61.4,57 61.4,44.1 68.6,44.1 68.6,45.9 63.5,45.9 63.5,49.1 68.6,49.1 68.6,50.9 63.5,50.9 63.5,55.1 
		68.6,55.1 68.6,57 61.4,57 	"/>
	<path class="st1" d="M73.4,57l0-13.4l8.2,7.9c0.2,0.2,0.4,0.5,0.7,0.7c0.2,0.3,0.5,0.5,0.7,0.9v-8.9h1.9v13.4l-8.4-8
		c-0.2-0.2-0.4-0.4-0.6-0.7c-0.2-0.2-0.4-0.5-0.6-0.8v9H73.4L73.4,57z"/>
	<path class="st1" d="M91.9,55.1h1.8c1,0,1.7-0.1,2.2-0.2c0.5-0.1,0.9-0.3,1.3-0.7c0.5-0.4,0.9-0.9,1.1-1.6c0.2-0.6,0.4-1.3,0.4-2.2
		c0-0.8-0.1-1.5-0.4-2.2c-0.2-0.6-0.6-1.1-1.1-1.6c-0.4-0.3-0.8-0.5-1.3-0.7c-0.5-0.1-1.3-0.2-2.4-0.2h-0.8h-0.8V55.1L91.9,55.1z
		 M89.8,57V44.1h2.8c1.8,0,3.1,0.1,3.9,0.3c0.7,0.2,1.4,0.5,2,0.9c0.7,0.6,1.3,1.3,1.7,2.2c0.4,0.9,0.6,1.9,0.6,3.1
		c0,1.1-0.2,2.2-0.6,3c-0.4,0.9-0.9,1.6-1.7,2.2c-0.6,0.4-1.2,0.7-1.9,0.9c-0.7,0.2-1.8,0.3-3.4,0.3h-0.6H89.8L89.8,57z"/>
	<polygon class="st1" points="122.6,45.9 122.6,57 120.5,57 120.5,45.9 117.1,45.9 117.1,44.1 126,44.1 126,45.9 122.6,45.9 	"/>
	<polygon class="st1" points="18.7,57 24.9,43.6 31.1,57 28.9,57 24.9,48.3 20.8,57 18.7,57 	"/>
	<path class="st2" d="M2.2,50l4.4-9.4l1.1,2.4c-1.5,3.2-2.9,6.3-4.4,9.4L2.2,50L2.2,50L2.2,50z M9.9,42.9l1.1,2.4
		c-1.8,3.9-3.7,7.9-5.5,11.8l-1.1-2.4C6.2,50.8,8.1,46.9,9.9,42.9L9.9,42.9z M12.1,47.6l1.1,2.4h0l-4.4,9.4l-1.1-2.4
		C9.2,53.9,10.6,50.8,12.1,47.6L12.1,47.6z M15.4,50L15.4,50L7.7,33.5L0,50h0l7.7,16.5L15.4,50L15.4,50z"/>
	<polygon class="st1" points="103.3,57 109.5,43.6 115.8,57 113.6,57 109.5,48.3 105.5,57 103.3,57 	"/>
</g>
</svg>
