<?xml version="1.0" encoding="utf-8"?>
<!-- Generator: Adobe Illustrator 24.0.0, SVG Export Plug-In . SVG Version: 6.00 Build 0)  -->
<svg version="1.1" id="Capa_1" xmlns="http://www.w3.org/2000/svg" xmlns:xlink="http://www.w3.org/1999/xlink" x="0px" y="0px"
	 viewBox="0 0 411 52.4" style="enable-background:new 0 0 411 52.4;" xml:space="preserve">
<style type="text/css">
	.st0{fill:#343434;}
</style>
<g>
	<polygon class="st0" points="77.4,9.3 77.4,50.5 69.7,50.5 69.7,9.3 57,9.3 57,2.6 90.1,2.6 90.1,9.3 77.4,9.3 	"/>
	<polygon class="st0" points="105.1,50.4 105.1,2.6 112.9,2.6 112.9,21.2 136.4,21.2 136.4,2.6 144.2,2.6 144.2,50.5 136.4,50.5 
		136.4,28.2 112.9,28.1 112.9,50.4 105.1,50.4 	"/>
	<polygon class="st0" points="164.2,50.5 164.2,2.6 190.9,2.6 190.9,9.3 172,9.3 172,21.2 190.9,21.2 190.9,28.1 172,28.1 172,43.5 
		190.9,43.5 190.9,50.5 164.2,50.5 	"/>
	<path class="st0" d="M208.9,50.5l0-49.7L239.3,30c0.8,0.8,1.7,1.7,2.5,2.6c0.8,0.9,1.7,2,2.7,3.2V2.6h7.2v49.7l-31-29.8
		c-0.8-0.8-1.6-1.7-2.4-2.6c-0.8-0.9-1.5-1.8-2.2-2.8v33.2H208.9L208.9,50.5z"/>
	<path class="st0" d="M277.4,43.4h6.5c3.6,0,6.3-0.2,8.1-0.7c1.8-0.5,3.4-1.3,4.7-2.4c1.8-1.5,3.2-3.5,4.1-5.8c0.9-2.3,1.4-5,1.4-8
		c0-3.1-0.5-5.7-1.4-8c-0.9-2.3-2.3-4.2-4.1-5.8c-1.3-1.1-3-1.9-4.8-2.4c-1.9-0.5-4.8-0.7-8.9-0.7h-2.8h-2.8V43.4L277.4,43.4z
		 M269.7,50.5V2.6h10.5c6.8,0,11.6,0.3,14.4,1c2.8,0.7,5.2,1.8,7.3,3.4c2.8,2.1,4.9,4.8,6.3,8.1c1.4,3.3,2.1,7.1,2.1,11.3
		c0,4.2-0.7,8-2.1,11.3c-1.4,3.3-3.5,6-6.3,8.1c-2.1,1.6-4.5,2.8-7.1,3.4c-2.7,0.7-6.8,1-12.5,1h-2.1H269.7L269.7,50.5z"/>
	<polygon class="st0" points="391.3,9.3 391.3,50.5 383.5,50.5 383.5,9.3 370.8,9.3 370.8,2.6 403.9,2.6 403.9,9.3 391.3,9.3 	"/>
	<polygon class="st0" points="5.9,50.5 28.9,0.8 52,50.5 43.9,50.5 28.9,18.3 13.9,50.5 5.9,50.5 	"/>
	<polygon class="st0" points="319.8,50.5 342.8,0.8 366,50.5 357.9,50.5 342.8,18.3 327.8,50.5 319.8,50.5 	"/>
</g>
</svg>
